name Run_500 01_newCOP3_v24.mot
datacolumns 19
datarows 82
range 2.366667 2.451042
DataType=double
version=3
OpenSimVersion=4.3-2021-08-27-4bc7ad9
endheader
time	R_ground_force_vx	R_ground_force_vy	R_ground_force_vz	R_ground_force_px	R_ground_force_py	R_ground_force_pz	L_ground_force_vx	L_ground_force_vy	L_ground_force_vz	L_ground_force_px	L_ground_force_py	L_ground_force_pz	R_ground_torque_x	R_ground_torque_y	R_ground_torque_z	L_ground_torque_x	L_ground_torque_y	L_ground_torque_z
2.366667	58.397762	1761.241821	69.074257	0.856809	0	-0.34249	0	0	0	0	0	0	-0	5.873359	-0	0	0	0
2.367708	62.334549	1747.46228	68.449341	0.854108	0	-0.342208	0	0	0	0	0	0	-0	6.403141	-0	0	0	0
2.36875	66.133545	1733.184814	67.943275	0.851442	0	-0.341904	0	0	0	0	0	0	-0	6.838706	-0	0	0	0
2.369792	69.80750999999999	1718.412476	67.549728	0.848809	0	-0.34158	0	0	0	0	0	0	-0	7.180771	-0	0	0	0
2.370833	73.370552	1703.146973	67.260002	0.846205	0	-0.341241	0	0	0	0	0	0	-0	7.432257	-0	0	0	0
2.371875	76.837654	1687.389038	67.063446	0.843626	0	-0.340891	0	0	0	0	0	0	-0	7.598046	-0	0	0	0
2.372917	80.224266	1671.138672	66.947845	0.841067	0	-0.340535	0	0	0	0	0	0	-0	7.684692	-0	0	0	0
2.373958	83.545868	1654.396362	66.89994	0.838522	0	-0.340177	0	0	0	0	0	0	-0	7.7001	-0	0	0	0
2.375	86.817604	1637.16272	66.90585299999999	0.835987	0	-0.339824	0	0	0	0	0	0	-0	7.653178	-0	0	0	0
2.376042	90.05388600000001	1619.439453	66.95156900000001	0.833456	0	-0.33948	0	0	0	0	0	0	-0	7.553478	-0	0	0	0
2.377083	93.26808200000001	1601.229492	67.023422	0.830923	0	-0.339149	0	0	0	0	0	0	-0	7.410833	-0	0	0	0
2.378125	96.472145	1582.537598	67.108513	0.828383	0	-0.338837	0	0	0	0	0	0	-0	7.235	-0	0	0	0
2.379167	99.676338	1563.369873	67.195099	0.82583	0	-0.338549	0	0	0	0	0	0	-0	7.035327	-0	0	0	0
2.380208	102.888901	1543.734985	67.272926	0.82326	0	-0.338287	0	0	0	0	0	0	-0	6.820446	-0	0	0	0
2.38125	106.115746	1523.642944	67.333557	0.82067	0	-0.338054	0	0	0	0	0	0	-0	6.597999	-0	0	0	0
2.382292	109.360229	1503.106201	67.370514	0.8180539999999999	0	-0.337854	0	0	0	0	0	0	-0	6.374413	-0	0	0	0
2.383333	112.622894	1482.13855	67.379471	0.815412	0	-0.337687	0	0	0	0	0	0	-0	6.154725	-0	0	0	0
2.384375	115.901329	1460.755859	67.358322	0.812742	0	-0.337555	0	0	0	0	0	0	-0	5.942453	-0	0	0	0
2.385417	119.190102	1438.974731	67.307114	0.810041	0	-0.337458	0	0	0	0	0	0	-0	5.739536	-0	0	0	0
2.386458	122.480789	1416.81311	67.228027	0.80731	0	-0.337394	0	0	0	0	0	0	-0	5.546319	-0	0	0	0
2.3875	125.762169	1394.289307	67.125175	0.80455	0	-0.337363	0	0	0	0	0	0	-0	5.361602	-0	0	0	0
2.388542	129.020493	1371.422241	67.004425	0.801762	0	-0.337362	0	0	0	0	0	0	-0	5.182741	-0	0	0	0
2.389583	132.240021	1348.230591	66.87307	0.798947	0	-0.337388	0	0	0	0	0	0	-0	5.005796	-0	0	0	0
2.390625	135.403503	1324.732666	66.739548	0.796107	0	-0.337439	0	0	0	0	0	0	-0	4.825727	-0	0	0	0
2.391667	138.492996	1300.946411	66.613083	0.793243	0	-0.33751	0	0	0	0	0	0	-0	4.636625	-0	0	0	0
2.392708	141.49054	1276.888916	66.50327299999999	0.790359	0	-0.337598	0	0	0	0	0	0	-0	4.431971	-0	0	0	0
2.39375	144.379059	1252.576172	66.419724	0.787455	0	-0.337698	0	0	0	0	0	0	-0	4.204922	-0	0	0	0
2.394792	147.143097	1228.023193	66.371628	0.784532	0	-0.337806	0	0	0	0	0	0	-0	3.948604	-0	0	0	0
2.395833	149.769623	1203.243408	66.367401	0.78159	0	-0.337918	0	0	0	0	0	0	-0	3.656411	-0	0	0	0
2.396875	152.248611	1178.249634	66.414299	0.778629	0	-0.338029	0	0	0	0	0	0	-0	3.322295	-0	0	0	0
2.397917	154.573486	1153.052979	66.518112	0.7756459999999999	0	-0.338136	0	0	0	0	0	0	-0	2.941044	-0	0	0	0
2.398958	156.741486	1127.663452	66.682838	0.772638	0	-0.338233	0	0	0	0	0	0	-0	2.508536	-0	0	0	0
2.4	158.753647	1102.090576	66.910492	0.769601	0	-0.338319	0	0	0	0	0	0	-0	2.02196	-0	0	0	0
2.401042	160.61467	1076.342529	67.20088199999999	0.766527	0	-0.33839	0	0	0	0	0	0	-0	1.479999	-0	0	0	0
2.402083	162.332581	1050.427734	67.55154400000001	0.763411	0	-0.338442	0	0	0	0	0	0	-0	0.882974	-0	0	0	0
2.403125	163.918091	1024.354126	67.957626	0.760242	0	-0.338475	0	0	0	0	0	0	-0	0.232938	-0	0	0	0
2.404167	165.383911	998.130188	68.411957	0.757012	0	-0.338486	0	0	0	0	0	0	0	-0.466286	0	0	0	0
2.405208	166.743881	971.765564	68.905106	0.75371	0	-0.338474	0	0	0	0	0	0	0	-1.20911	0	0	0	0
2.40625	168.012024	945.270996	69.42553700000001	0.750326	0	-0.338438	0	0	0	0	0	0	0	-1.988242	0	0	0	0
2.407292	169.20163	918.659363	69.959801	0.746847	0	-0.338379	0	0	0	0	0	0	0	-2.794802	0	0	0	0
2.408333	170.324249	891.945984	70.49282100000001	0.743263	0	-0.338296	0	0	0	0	0	0	0	-3.618477	0	0	0	0
2.409375	171.38884	865.149048	71.00818599999999	0.739564	0	-0.338191	0	0	0	0	0	0	0	-4.447725	0	0	0	0
2.410417	172.401031	838.289978	71.48850299999999	0.735742	0	-0.338064	0	0	0	0	0	0	0	-5.270018	0	0	0	0
2.411458	173.362473	811.3937989999999	71.91578699999999	0.731789	0	-0.337918	0	0	0	0	0	0	0	-6.072116	0	0	0	0
2.4125	174.270325	784.489197	72.271851	0.7277	0	-0.337752	0	0	0	0	0	0	0	-6.840362	0	0	0	0
2.413542	175.117065	757.608459	72.53872699999999	0.723474	0	-0.337571	0	0	0	0	0	0	0	-7.561002	0	0	0	0
2.414583	175.890366	730.787415	72.69908100000001	0.71911	0	-0.337375	0	0	0	0	0	0	0	-8.220504	0	0	0	0
2.415625	176.573273	704.06488	72.73659499999999	0.714612	0	-0.337166	0	0	0	0	0	0	0	-8.805885	0	0	0	0
2.416667	177.144501	677.482239	72.636375	0.709989	0	-0.336948	0	0	0	0	0	0	0	-9.30503	0	0	0	0
2.417708	177.57901	651.082886	72.385277	0.70525	0	-0.336722	0	0	0	0	0	0	0	-9.706987	0	0	0	0
2.41875	177.848755	624.911255	71.97223700000001	0.70041	0	-0.336492	0	0	0	0	0	0	0	-10.002247	0	0	0	0
2.419792	177.923508	599.012085	71.388519	0.695487	0	-0.336259	0	0	0	0	0	0	0	-10.182986	0	0	0	0
2.420833	177.771973	573.429565	70.62796	0.6905019999999999	0	-0.336027	0	0	0	0	0	0	0	-10.243277	0	0	0	0
2.421875	177.362823	548.206787	69.687073	0.685478	0	-0.335799	0	0	0	0	0	0	0	-10.179253	0	0	0	0
2.422917	176.665848	523.384766	68.565186	0.680442	0	-0.335576	0	0	0	0	0	0	0	-9.989224	0	0	0	0
2.423958	175.653091	499.002014	67.26445	0.67542	0	-0.335364	0	0	0	0	0	0	0	-9.673754000000001	0	0	0	0
2.425	174.299988	475.094421	65.789818	0.670442	0	-0.335164	0	0	0	0	0	0	0	-9.235670000000001	0	0	0	0
2.426042	172.586197	451.694824	64.148949	0.665537	0	-0.33498	0	0	0	0	0	0	0	-8.680037	0	0	0	0
2.427083	170.496521	428.833221	62.352036	0.660735	0	-0.334813	0	0	0	0	0	0	0	-8.014067000000001	0	0	0	0
2.428125	168.021408	406.536835	60.411633	0.656068	0	-0.334667	0	0	0	0	0	0	0	-7.246994	0	0	0	0
2.429167	165.157425	384.830536	58.342384	0.651567	0	-0.334542	0	0	0	0	0	0	0	-6.389895	0	0	0	0
2.430208	161.90741	363.737122	56.160717	0.647264	0	-0.334439	0	0	0	0	0	0	0	-5.455468	0	0	0	0
2.43125	158.280304	343.27774	53.884525	0.643192	0	-0.334354	0	0	0	0	0	0	0	-4.457785	0	0	0	0
2.432292	154.291077	323.472046	51.53281	0.639386	0	-0.334285	0	0	0	0	0	0	0	-3.412008	0	0	0	0
2.433333	149.960068	304.338531	49.125301	0.635885	0	-0.334225	0	0	0	0	0	0	0	-2.334086	0	0	0	0
2.434375	145.312622	285.894531	46.682079	0.632729	0	-0.334165	0	0	0	0	0	0	0	-1.240434	0	0	0	0
2.435417	140.37822	268.156036	44.223202	0.6299630000000001	0	-0.33409	0	0	0	0	0	0	0	-0.147609	0	0	0	0
2.436458	135.18988	251.137558	41.768326	0.627637	0	-0.333985	0	0	0	0	0	0	-0	0.928015	-0	0	0	0
2.4375	129.783371	234.851654	39.336369	0.625806	0	-0.333828	0	0	0	0	0	0	-0	1.970569	-0	0	0	0
2.438542	124.196411	219.308548	36.945164	0.624528	0	-0.333594	0	0	0	0	0	0	-0	2.964987	-0	0	0	0
2.439583	118.468033	204.515503	34.611202	0.6238669999999999	0	-0.333251	0	0	0	0	0	0	-0	3.897292	-0	0	0	0
2.440625	112.63784	190.47644	32.349346	0.623887	0	-0.332766	0	0	0	0	0	0	-0	4.754848	-0	0	0	0
2.441667	106.745438	177.191452	30.172651	0.624653	0	-0.3321	0	0	0	0	0	0	-0	5.52658	-0	0	0	0
2.442708	100.829811	164.656418	28.092182	0.6262259999999999	0	-0.331212	0	0	0	0	0	0	-0	6.203156	-0	0	0	0
2.44375	94.928833	152.862808	26.116915	0.628661	0	-0.330057	0	0	0	0	0	0	-0	6.777134	-0	0	0	0
2.444792	89.078773	141.797577	24.25367	0.631997	0	-0.328593	0	0	0	0	0	0	-0	7.243056	-0	0	0	0
2.445833	83.313866	131.443237	22.507097	0.63626	0	-0.326773	0	0	0	0	0	0	-0	7.597504	-0	0	0	0
2.446875	77.66593899999999	121.778008	20.879715	0.641447	0	-0.324558	0	0	0	0	0	0	-0	7.83911	-0	0	0	0
2.447917	72.16403200000001	112.776199	19.371996	0.64753	0	-0.321909	0	0	0	0	0	0	-0	7.968522	-0	0	0	0
2.448958	66.83416699999999	104.408638	17.982473	0.654444	0	-0.318795	0	0	0	0	0	0	-0	7.988326	-0	0	0	0
2.45	61.699036	96.64318799999999	16.70792	0.662085	0	-0.315194	0	0	0	0	0	0	-0	7.90293	-0	0	0	0
2.451042	56.777885	89.445412	15.54353	0.670309	0	-0.311092	0	0	0	0	0	0	-0	7.718415	-0	0	0	0
